<svg width="407" height="401" xmlns="http://www.w3.org/2000/svg" stroke="null" style="vector-effect: non-scaling-stroke;">

 <g stroke="null">
  <title stroke="null">Layer 1</title>
  <path stroke="null" fill="#ffffff" d="m199.46169,0.44444c-1.4,0.5 -28.6,10.3 -60.5,21.9c-31.9,11.5 -64.1,23.1 -71.5,25.8c-7.4,2.6 -14.3,5.5 -15.3,6.4c-1.7,1.5 -1.8,5.6 -1.7,68.7c0,37.7 0.5,70.6 1,75c5.4,42.7 19.9,77.3 48.9,116.3c11.2,15.2 39.6,43.6 55.6,55.6c19.6,14.8 43.8,30.4 47.2,30.4c2.3,0 21.9,-11.6 33.9,-20.1c16.5,-11.6 27.8,-21.2 43,-36.4c37.5,-37.5 59.7,-75 70.5,-119c5.2,-21.4 5.9,-33.5 5.9,-104.8c0,-60.1 -0.1,-64.5 -1.7,-65.9c-1,-0.8 -10.3,-4.5 -20.8,-8.2c-10.4,-3.7 -43.1,-15.5 -72.5,-26.2c-29.4,-10.6 -54.9,-19.6 -56.5,-19.8c-1.7,-0.3 -4.1,-0.1 -5.5,0.3zm20.8,31.8c7.3,2.5 13.1,4.8 12.8,5c-0.2,0.2 -4.7,0 -10,-0.6c-15.7,-1.8 -34.7,-1.2 -49.1,1.4c-5.7,1.1 0.2,-1.6 14.9,-6.6c8,-2.8 14.9,-4.6 16.1,-4.3c1.1,0.3 8,2.6 15.3,5.1zm-20,22l-0.3,12.8l-9.8,1.2c-16.9,2.1 -34.5,8 -48.7,16.3c-27.5,16.1 -49.3,44.8 -57.7,76c-1.5,5.7 -3.5,11.2 -4.5,12.2c-1,1 -1.8,2.7 -1.8,3.8c0,2.6 3.4,6 6,6c2.4,0 6,-3.4 6,-5.6c0,-0.8 -0.4,-2.4 -1,-3.4c-0.7,-1.3 -0.3,-4.5 1.4,-11.2c16.7,-65.6 86.6,-104.2 151.6,-83.6c43.8,13.9 75.2,50.5 82.5,96.4c0.9,5.2 1.3,9.9 1,10.4c-0.4,0.6 -6.4,1 -13.5,1l-12.9,0l-0.6,-3.8c-1.3,-8.3 -4.7,-20.9 -7.7,-28c-9.9,-23.8 -32.8,-44.2 -58.3,-51.8c-3.3,-1 -6.9,-2.6 -8.1,-3.6c-4.5,-4 -10.8,-1.2 -10.2,4.6c0.4,4.1 3.5,5.7 8.7,4.3c3.2,-0.9 4.9,-0.7 10.2,1.2c16.3,5.9 30.3,15.7 40.6,28.6c22.4,28.1 25.3,65.8 7.6,97.5c-5.6,10 -20.5,25.5 -29.5,30.8c-7.3,4.3 -20.3,9.9 -24.9,10.7l-3.6,0.7l-0.5,-12.4c-0.3,-6.7 -0.3,-12.8 -0.1,-13.5c0.3,-0.6 2.3,-1.9 4.6,-2.8c7.5,-2.9 18.4,-10.4 23.2,-15.8c4.3,-4.8 12.5,-19.4 12.5,-22.2c0,-0.6 0.9,-2 2,-3c3,-2.7 2.7,-8 -0.6,-10.2c-2.4,-1.5 -2.9,-1.5 -5.3,-0.2c-2.9,1.6 -3.9,5.6 -2.1,8.9c0.9,1.7 0.5,3.4 -2.6,9.8c-4.5,9.4 -14,19.2 -23,24c-9.7,5 -9.4,5.4 -9.4,-10.3l0,-13.5l3.9,-4.3c6.1,-6.7 8.1,-11.2 8.1,-18.7c0,-15.1 -8.9,-26.4 -23.3,-29.5l-2.9,-0.6l0.4,-12.4c0.2,-6.8 0.6,-12.6 0.9,-13c0.4,-0.3 3.9,0.1 7.8,0.9c13.7,2.9 26.4,11.8 34.9,24.4c2.8,4.2 3.6,6.5 3.8,10.3c0.1,5.4 2.4,8.9 5.7,8.9c5.1,0 7.8,-7.7 3.6,-10.2c-1.1,-0.7 -3.6,-4.3 -5.5,-8c-7.1,-13.4 -20.5,-24.7 -35.4,-29.9c-5.4,-1.9 -8.6,-2.3 -18.5,-2.3c-10.6,0 -12.8,0.3 -19.3,2.8c-21.5,8.1 -35,23.1 -39.8,44.4l-1.6,7.2l-12.8,0c-7.1,0 -13.1,-0.4 -13.5,-0.9c-0.8,-1.3 2.1,-14.7 5,-23.2c7.4,-22 26,-41.3 49.1,-50.9c7.2,-3 10,-3.5 16.6,-3c3.6,0.3 5.8,-1.6 5.8,-4.8c0,-5.4 -7.3,-8.5 -10.2,-4.4c-0.7,1.1 -4.4,2.9 -8.3,4.2c-13.7,4.5 -24.3,11 -36.3,22.4c-17.4,16.6 -26.4,36 -27.8,60.1c-1.1,18.3 3.6,39.3 12,53.5c8.2,14.1 20.4,25.7 36.3,34.6c4.6,2.6 8.8,5.5 9.4,6.5c1.2,2.3 6.1,2.5 8.3,0.3c2,-1.9 2.1,-6.8 0.2,-8.3c-1.4,-1.2 -2.5,-1.3 -7.6,-1c-3.3,0.2 -14.7,-6.5 -23.2,-13.6c-15.9,-13.2 -27.6,-36.5 -29.5,-58.3l-0.6,-7.3l13.4,0.3l13.4,0.3l0.8,6.4c1.7,13.7 7.4,25.7 16.9,35.4c3.3,3.4 6.4,7.2 6.9,8.4c1.3,3.6 5.3,5 8.4,2.9c4.9,-3.2 2.5,-10.6 -3.5,-10.6c-2.1,0 -4.1,-1.4 -8.4,-6c-6.7,-7.3 -9.8,-12.4 -12.5,-20.9c-4.1,-12.5 -2.1,-31 4.7,-43.6c7.1,-13.1 23.9,-24.4 40,-26.9l4.2,-0.6l0,13l0,13l-2.7,0.6c-10.7,2.6 -19.7,11.4 -21.8,21.4c-3.4,15.5 5.1,30.1 20,34.5l4,1.2l0.3,45.2l0.2,45.1l-4,0c-5.9,0 -23,-3.5 -31.8,-6.6c-26.8,-9.2 -48.5,-27.2 -64.1,-53.3c-6,-10 -10.1,-20.4 -13,-33.3c-2.1,-9 -2.1,-9.9 -0.7,-12c2.1,-3 2,-6.1 -0.3,-8.2c-2.8,-2.5 -7.2,-1.7 -9,1.6c-1.4,2.4 -1.3,3 0.7,7.1c1.2,2.4 2.2,5.3 2.2,6.5c0,3.5 4.8,20.6 7.7,27.3c4.1,9.6 11.4,21.6 18.6,30.5c20.7,25.6 47.2,40.5 80.4,45.2l12.8,1.8l0.3,27.2c0.1,17.7 -0.1,27.2 -0.8,27.2c-0.5,0 -3.2,-1.4 -6,-3.1l-5,-3.1l0,-19.3c0,-14.2 -0.3,-19.5 -1.2,-20.3c-0.7,-0.5 -4.4,-1.5 -8.1,-2.1c-15.7,-2.7 -36,-11 -50.8,-20.7c-8.4,-5.6 -22.8,-19 -30,-28c-12.2,-15.4 -24.9,-50.6 -27.5,-76.7l-0.7,-6.8l11.9,0.3l11.9,0.3l0.2,4c3.1,48.4 34.3,88 79.7,101c9.8,2.8 14.1,3.1 14.9,1.3c0.2,-0.7 0.2,-17 -0.1,-36.1l-0.5,-34.8l-4.3,-2.5c-6.7,-3.9 -13.7,-12.3 -16.5,-19.6c-3.4,-9 -3.3,-21.1 0.3,-28.8c5.5,-11.8 14.9,-20.5 20.9,-19.3c6,1.2 9.6,-6.7 4.7,-10.1c-3.2,-2.2 -4.6,-2 -7.6,1.2c-1.5,1.5 -4.7,4.2 -7.2,5.9c-11,7.5 -17.1,17.3 -19.1,30.5c-2.5,17.2 3.8,32.6 17.7,42.9l5.4,4l0,13.4c0,11.3 -0.2,13.5 -1.5,13.5c-0.8,0 -4.9,-1.8 -9.2,-4c-17.6,-9.3 -29.3,-22.8 -34.9,-40.7c-2.1,-6.5 -2.3,-8.1 -1.3,-10.5c1.5,-3.7 -0.1,-7.5 -3.5,-8.4c-5.7,-1.4 -9.5,4.6 -5.9,9.4c1.1,1.5 3,5.8 4.2,9.6c4.6,14.3 12.1,26 22.7,35.5c5.3,4.7 23.8,15.1 26.9,15.1c2.2,0 2.3,0.8 3,14.3c0.8,15.1 0.9,14.9 -9.7,11.7c-16.3,-4.9 -29.9,-13.2 -42.6,-25.8c-13.6,-13.4 -22,-27.9 -27.4,-47.5c-2,-7.1 -2.3,-10.4 -2.3,-25.7c0.1,-19.1 1.3,-26.1 7.3,-40.5c12.2,-29.4 38.6,-52.1 69.6,-60c5,-1.3 12,-2.5 15.6,-2.7l6.5,-0.3l0.3,13.1l0.3,13.2l-5.6,0.7c-21.6,2.7 -42.2,14.8 -53.6,31.7c-4.1,6 -10.9,19.4 -10.9,21.4c0,0.6 -1.1,2.3 -2.5,3.8c-3,3.3 -3.2,5.9 -0.5,8.6c2.6,2.6 5.5,2.5 8.1,-0.1c1.6,-1.6 1.9,-2.8 1.4,-4.7c-1.2,-5 -0.7,-7.4 3.4,-15.6c5,-10.2 10,-16.6 18.2,-23.2c13.8,-11.2 27.8,-16.4 44,-16.4c34.6,0 62.7,21.7 70.4,54.3c2.7,11.5 3.5,10.8 -11.2,10.5l-12.7,-0.3l-1.6,-5.5c-3.4,-11.1 -9.4,-19.6 -18.3,-25.6c-2.3,-1.6 -5.4,-4.1 -6.9,-5.6c-3,-3.2 -4.5,-3.4 -7.6,-1.2c-4.8,3.4 -1.3,11.3 4.6,10.1c3.5,-0.7 7.5,1.6 13.1,7.4c8.2,8.4 12.1,21.1 10.1,32.7c-1.8,10.5 -8.7,22.2 -13.1,22.2c-5.1,0 -6.7,7.8 -2.3,10.7c2.4,1.5 2.9,1.5 5.3,0.2c1.4,-0.8 3.1,-2.8 3.6,-4.4c0.6,-1.7 2.5,-5.1 4.3,-7.7c4.4,-6.4 6.9,-12.6 8.3,-20.3l1.1,-6.5l12.6,0l12.5,0l-0.6,7.9c-0.7,8.9 -4,19.5 -8.8,27.8c-7.2,12.6 -24.5,27.3 -32.1,27.3c-5.7,0 -8.7,5.3 -5.1,9.2c2.5,2.8 6.8,2.3 9.5,-1.1c1.3,-1.6 5,-4.6 8.3,-6.7c7.6,-4.7 19,-16.3 23.4,-23.7c13.1,-22.2 15,-47.8 5.4,-71.2c-10.1,-24.4 -35.3,-43.2 -61.5,-46l-6.8,-0.7l0,-13.4l0,-13.4l3.6,0c5.7,0 22.2,3.7 30.6,6.9c20,7.5 37.4,21.2 48.7,38.2c9.5,14.5 16.7,33.6 15.4,41.4c-1.1,6.7 5.5,10.1 9.6,4.9c2.1,-2.7 1.9,-4.7 -1,-7.9c-1,-1.1 -2.6,-5.2 -3.7,-9c-12,-42.8 -47.7,-73.7 -91.9,-79.6c-30.9,-4.1 -65,6.9 -89.2,28.7c-18.1,16.4 -31.2,43.7 -34.3,71.4l-0.3,2.5l-12,0l-12,0l-0.3,-3.3c-0.8,-8.6 7,-37.8 13.8,-51.2c9.6,-19 26.6,-38 46,-51.5c8.1,-5.7 26.2,-14 37,-17.1c9.6,-2.7 15.3,-3.3 20.3,-1.9c5.7,1.5 9.4,-6.5 4.5,-9.9c-2.9,-2.1 -4.7,-2 -7.2,0.3c-1.2,1 -5.9,2.6 -10.6,3.6c-25.4,5.3 -49.3,18.5 -68.6,37.9c-15.2,15.2 -21.9,25.5 -33.7,51.6c-1.5,3.4 -1.6,3.2 -1.6,-9.3l-0.1,-12.7l4.2,-6.8c11.3,-18.1 27.4,-35.7 42.7,-46.6c16.3,-11.7 36.8,-20.5 57,-24.5c11.9,-2.4 14.2,-2.8 20.9,-3l5.3,-0.1l-0.3,12.7zm24.9,-11.2c12.8,1.7 20.2,3.4 30.3,7c30.7,10.8 58.8,33.1 76.7,60.7c4.1,6.4 4.3,6.9 4.3,14.5c0,13.4 -0.6,13.7 -6,3.4c-7.6,-14.3 -14.6,-23.8 -26.5,-35.7c-20.4,-20.5 -42.7,-32.5 -70.9,-38.3c-5.2,-1 -10.5,-2.6 -11.8,-3.5c-3.1,-2.2 -5.1,-2 -7.8,0.9c-2,2.1 -2.2,3 -1.4,5.2c1.2,3.4 5.6,5.3 8.4,3.5c2.8,-1.7 7.5,-1.5 16.6,0.8c10.8,2.8 18.4,5.6 27.9,10.3c32.3,16 56.7,44 68,78.2c2.9,8.7 3,9.6 2.9,26.5c-0.1,9.6 -0.7,21.5 -1.3,26.5c-3.4,25.3 -12.2,49.9 -26.3,73.8c-7.2,12 -29.2,30 -46.1,37.7c-11.6,5.3 -21.5,8.2 -23.6,7c-1.1,-0.5 -2.4,-1 -3,-1c-1.9,0 -5.1,3.9 -5.1,6.2c0,5.3 7.4,7.9 10.4,3.7c0.8,-1.2 4.8,-3.3 9.3,-4.9c8.8,-3 22.6,-9.4 29.1,-13.5c2.3,-1.4 4.2,-2.2 4.2,-1.8c0,0.5 -4.4,5.4 -9.7,10.9c-9.6,9.7 -10,10 -18.3,12.6c-13.9,4.4 -19.5,5.8 -24.6,6l-4.9,0.3l-0.3,-10c-0.4,-14.4 -0.6,-14 8.5,-16c34.2,-7.6 64.2,-30.3 82.7,-62.6c10.4,-18.1 16,-48 13.6,-72.1c-2.8,-29.2 -14.1,-52.9 -35.5,-74.4c-22.9,-23.1 -48,-34.9 -79.2,-37.2l-8.8,-0.7l-0.3,-12.8l-0.3,-12.7l3.5,0c1.9,0 8.8,0.7 15.3,1.5zm-93.7,9.9c0,0.2 -2.8,2 -6.2,4.1c-17.9,10.9 -39.4,30.6 -48.8,44.7c-2.5,3.7 -4.8,6.8 -5.2,6.8c-0.5,0 -0.8,-3 -0.8,-6.6c0,-6.6 0.1,-6.8 5.7,-13.8c3.1,-3.9 9.6,-11 14.3,-15.7l8.8,-8.6l12.8,-4.7c7.1,-2.6 13.8,-5.1 14.9,-5.6c2.1,-0.9 4.5,-1.3 4.5,-0.6zm167.5,7.7c10.5,3.8 12.8,5 18.9,10.3c3.8,3.4 9.5,9.2 12.7,12.9l5.9,6.8l0,7c0,3.8 -0.3,6.9 -0.7,6.9c-0.5,-0.1 -2.6,-2.6 -4.8,-5.7c-9.2,-12.8 -27.6,-30.2 -41.1,-38.8c-5,-3.2 -7.1,-5.4 -4.1,-4.2c0.6,0.2 6.6,2.4 13.2,4.8zm-215.5,9.6c0,0.7 -11.1,12.6 -12.2,13.1c-0.5,0.2 -0.8,-1.4 -0.8,-3.6c0,-4.5 1.2,-5.9 7.4,-8.4c4.6,-1.9 5.6,-2.1 5.6,-1.1zm251.3,4.1c1.8,1.6 2.4,5.2 0.8,5.2c-0.9,0 -7.1,-6.6 -7.1,-7.6c0,-0.9 4.4,0.8 6.3,2.4zm-122.5,96.6c6.2,2.2 9.9,5.5 12.7,11c4.9,9.8 2.6,21.2 -5.5,27.7l-4.3,3.4l0.6,34.9c0.3,21.3 1,35.3 1.6,35.9c0.7,0.7 3.1,0.6 7.3,-0.3c22.8,-4.4 48.1,-22.5 60.3,-43.1c6.4,-10.8 11.2,-25.3 12.7,-38l1.2,-9.9l13.3,0l13.3,0l0,4.3c0,7 -3,22.5 -6.1,32.1c-11,33.2 -34,58.3 -66.3,72.5c-9.7,4.3 -22.8,8.1 -27.7,8.1c-5.8,0 -5.9,0.6 -5.9,29.4l0,26.2l-5.3,3.2c-2.9,1.8 -5.6,3.2 -6,3.2c-0.9,0 -0.9,-69 0.1,-69c0.4,0 5.4,-0.7 11.1,-1.5c25.8,-3.7 44.4,-12.8 62.7,-31c9.5,-9.4 14.6,-16.3 20.8,-28c3.4,-6.5 8.6,-21.5 10.1,-29.5c0.4,-1.9 1.4,-4.3 2.2,-5.2c2.3,-2.5 1.9,-6.9 -0.7,-9c-2.7,-2.2 -3.9,-2.2 -6.8,-0.2c-2.4,1.7 -2.8,4.9 -1.1,8.7c0.9,1.9 0.7,4.2 -0.9,10.5c-6.1,24.1 -22.4,47.6 -42.2,60.7c-14.7,9.8 -34.3,16.8 -49,17.6l-6.5,0.4l-0.5,-39.9l-0.5,-39.9l-2.5,-0.7c-1.4,-0.4 -4.4,-1.3 -6.8,-1.9c-9,-2.5 -15.3,-11.1 -15.3,-21c-0.1,-16 15.1,-26.9 29.9,-21.7zm-87.9,136.6c14.2,10.7 34.5,19.1 56.9,23.6c2.1,0.4 2.2,0.8 2.2,11.8c0,6.2 -0.2,11.5 -0.5,11.8c-0.5,0.5 -6.5,-0.4 -12.1,-1.7c-2.6,-0.6 -15.1,-10.5 -13.3,-10.5c3.1,0 9.2,2.3 11,4.1c2.5,2.5 5.4,2.4 7.9,-0.1c5.3,-5.3 -1.4,-12.9 -7.8,-8.9c-1.5,0.9 -3.6,0.6 -10.3,-1.6c-13.6,-4.4 -18.1,-6.9 -25,-14.3c-9,-9.5 -16.3,-18.2 -15.2,-18.2c0.4,0 3.3,1.8 6.2,4zm126.1,34.8c0,0.4 -3.9,3.7 -8.7,7.3c-12.8,9.5 -15,10.9 -15.7,10.2c-1.1,-1.2 -0.6,-11.2 0.6,-12c0.7,-0.4 6.2,-2 12.3,-3.4c6,-1.5 11.1,-2.7 11.3,-2.8c0.1,0 0.2,0.3 0.2,0.7z"/>
  <path stroke="#000" id="svg_1" d="m121.9665,175.99634" opacity="NaN" fill="#fff"/>
 </g>
</svg>